<svg xmlns="http://www.w3.org/2000/svg" viewBox="0 0 856.34 243.25"><defs><style>.cls-1{fill:#d6d82a;}.cls-2{font-size:148px;font-family:Effra-Bold, Effra;font-weight:700;letter-spacing:-0.03em;}.cls-2,.cls-6{fill:#fefefe;}.cls-3{letter-spacing:0.01em;}.cls-4{letter-spacing:0.01em;}.cls-5{letter-spacing:0em;}.cls-6{font-size:60px;font-family:EffraMedium-Regular, Effra Medium;letter-spacing:0.09em;}.cls-7{letter-spacing:0.13em;}.cls-8{letter-spacing:0.02em;}.cls-9{letter-spacing:0.09em;}.cls-10{letter-spacing:0.13em;}.cls-11{letter-spacing:0.12em;}</style></defs><g id="Capa_2" data-name="Capa 2"><g id="Capa_2-2" data-name="Capa 2"><path class="cls-1" d="M73.63,123.26c5.77-3.12,11.07-6.68,16.63-9.78S101,106.32,107.05,104c3.63-1.39,6.77-.14,7.61,3.5a25.16,25.16,0,0,1-.11,11.64c-.45,1.82-2,3-3.64,4C99.3,130,87.66,136.79,76.1,143.72a4.7,4.7,0,0,0-2.53,4.37c.12,18.07.07,36.14.06,54.21,0,1.75-.18,3.51-.29,5.4A45.26,45.26,0,0,1,68,204.43q-27.9-16.53-55.78-33.06c-1.9-1.13-3.79-2.28-5.66-3.47A12.92,12.92,0,0,1,.09,156.17c.08-30.7.2-61.41-.09-92.11C-.07,56.66,2.71,52,9,48.4,27,38.14,44.78,27.58,62.65,17.12Q75.52,9.59,88.37,2A12.26,12.26,0,0,1,101.8,2c8.13,4.8,16.21,9.7,24.4,14.39,12.93,7.41,25.65,15.18,38.58,22.58,5.7,3.27,11.33,6.66,17.1,9.79,6,3.24,8.55,8.12,8.53,14.86-.1,29.32-.06,58.65-.06,88a52.57,52.57,0,0,1-.52,8,11.63,11.63,0,0,1-5.94,8.5q-9.6,5.82-19.28,11.51-26.38,15.42-52.83,30.77c-3.93,2.28-7.67,4.92-11.88,6.69-2,.84-4,1.58-6.24,1.13a7,7,0,0,1-5.74-6.52,27.43,27.43,0,0,1,.39-6.64c.67-3.45,2.16-5.81,5.83-7.18,5.46-2,10.28-5.53,15.33-8.47,19.25-11.22,38.46-22.49,57.76-33.61a6.4,6.4,0,0,0,3.66-6.36q-.16-40.95,0-81.9a4.31,4.31,0,0,0-2.51-4.28q-34.58-20.19-69-40.59a6.91,6.91,0,0,0-8,0c-4.8,3-9.76,5.72-14.65,8.57Q49.05,47.42,21.4,63.59a3.27,3.27,0,0,0-1.82,3.15q0,42.23,0,84.45a3.9,3.9,0,0,0,2.08,3.67c10.24,5.93,20.51,11.82,30.72,17.82,1.57.91,1.76.62,1.77-1q0-35.34.12-70.7c0-3.14.15-6.28.23-9.42A6.19,6.19,0,0,1,55.92,88c3.17-4.36,8-6.37,12.41-9Q84.88,69,101.5,59.09a28.09,28.09,0,0,1,4.78-2.48A6.36,6.36,0,0,1,115,61.84a56.51,56.51,0,0,1-.07,8.43,6,6,0,0,1-3.34,5.11c-3.43,2-6.8,4.1-10.21,6.13-8.46,5-16.83,10.19-25.45,14.91-2.27,1.25-2.42,2.39-2.36,4.58C73.75,108.32,73.63,115.64,73.63,123.26Z"/><text class="cls-2" transform="translate(246.9 151.6)">F<tspan class="cls-3" x="75.33" y="0">O</tspan><tspan class="cls-4" x="190.33" y="0">C</tspan><tspan class="cls-5" x="292.59" y="0">ALIS</tspan></text><text class="cls-6" transform="translate(248.97 229.27)">S<tspan class="cls-7" x="40.8" y="0">TR</tspan><tspan class="cls-8" x="128.88" y="0">A</tspan><tspan class="cls-7" x="169.08" y="0">T</tspan><tspan class="cls-9" x="214.26" y="0">E</tspan><tspan class="cls-10" x="253.68" y="0">GA G</tspan><tspan class="cls-11" x="421.02" y="0">R</tspan><tspan class="cls-7" x="463.32" y="0">OUP</tspan></text></g></g></svg>